<?xml version='1.0' encoding='utf-8'?>
<svg xmlns="http://www.w3.org/2000/svg" width="4000" height="2250" viewBox="0 0 1058.3333 595.31252" version="1.1" id="svg8"> <defs id="defs2"> <filter style="color-interpolation-filters:sRGB" id="filter869" x="-0.026279914" width="1.0525598" y="-0.042235937" height="1.0844719"> <feGaussianBlur stdDeviation="9.8212148" id="feGaussianBlur871"/> </filter> </defs> <metadata id="metadata5"> </metadata> <g id="layer1" transform="translate(0,298.31252)"> <rect style="fill:#e6e6e6;fill-opacity:1;stroke:none;stroke-width:1.96941733;stroke-linecap:round;stroke-linejoin:round;stroke-miterlimit:4;stroke-dasharray:none;stroke-dashoffset:0;stroke-opacity:1;paint-order:fill markers stroke" id="rect880" width="791.50446" height="596.4057" x="266.09525" y="-298.69049"/> <rect y="-297.17859" x="3.5877919" height="594.17853" width="262.50748" id="rect882" style="fill:#999999;fill-opacity:1;stroke:none;stroke-width:1.13206017;stroke-linecap:round;stroke-linejoin:round;stroke-miterlimit:4;stroke-dasharray:none;stroke-dashoffset:0;stroke-opacity:1;paint-order:fill markers stroke"/> <g id="g906"> <path style="fill:#000000;stroke:none;stroke-width:0.26458332px;stroke-linecap:butt;stroke-linejoin:miter;stroke-opacity:1;filter:url(#filter869)" d="m 33.103607,63.50202 852.316353,1.480206 44.60119,37.797634 -42.64648,38.76867 -618.57695,-1.5119 -235.694113,97.32076 z" id="path835"/> <path style="fill:#000000;stroke:none;stroke-width:0.26458332px;stroke-linecap:butt;stroke-linejoin:miter;stroke-opacity:1;filter:url(#filter869)" d="M 33.103607,-109.63985 268.79772,-14.177662 739.96394,-6.6181191 781.65531,27.399737 739.96394,65.007414 268.79772,65.19736 33.103607,63.50202 Z" id="path837"/> <path style="fill:#000000;stroke:none;stroke-width:0.26458332px;stroke-linecap:butt;stroke-linejoin:miter;stroke-opacity:1;filter:url(#filter869)" d="m 36.127417,-243.42021 229.646493,166.928946 564.90435,-8.745908 47.62499,38.55357 -49.13692,39.6875069 -560.36861,0.377957 L 33.103607,-102.77469 Z" id="path839"/> <path style="fill:#000000;stroke:none;stroke-width:0.26458332px;stroke-linecap:butt;stroke-linejoin:miter;stroke-opacity:1;filter:url(#filter869)" d="m 33.103607,237.35739 235.316133,-99.37006 436.08123,2.0493 52.75549,47.2804 -51.58378,44.72534 H 268.41974 l -95.67203,46.32894 -138.132198,3.71986 z" id="path841"/> </g> <g id="g920" transform="matrix(1.0041646,0,0,0.9954285,-0.20825957,0.22894813)"> <path id="path890" d="M 0.26726953,52.265957 881.7536,54.124139 926.35479,91.921772 883.70831,130.69045 265.13136,129.17855 0.26726953,238.97212 Z" style="fill:#aa0000;stroke:none;stroke-width:0.26458332px;stroke-linecap:butt;stroke-linejoin:miter;stroke-opacity:1"/> <path id="path888" d="M 0.26726953,-123.52174 265.13136,-25.035749 736.29758,-17.476206 777.98895,16.54165 736.29758,54.149327 265.13136,54.339273 0.26726953,52.265957 Z" style="fill:#ff2a2a;stroke:none;stroke-width:0.26458332px;stroke-linecap:butt;stroke-linejoin:miter;stroke-opacity:1"/> <path id="path886" d="M 0.18600619,-297.17859 265.13136,-96.42078 l 561.88054,0.325521 47.62499,38.55357 -49.13692,39.687507 -560.36861,0.377957 L 0.26726953,-123.52174 Z" style="fill:#ff6600;stroke:none;stroke-width:0.26458332px;stroke-linecap:butt;stroke-linejoin:miter;stroke-opacity:1"/> <path id="path892" d="M -0.11070666,236.92282 264.75338,127.12925 l 436.08123,2.0493 52.75549,47.2804 -51.58378,44.72534 H 264.75338 L 151.9761,298.13391 H 0.26726953 Z" style="fill:#550000;stroke:none;stroke-width:0.26458332px;stroke-linecap:butt;stroke-linejoin:miter;stroke-opacity:1"/> </g> <rect style="opacity:0.24100001;fill:#550000;fill-opacity:1;stroke:none;stroke-width:2.48260212;stroke-linecap:round;stroke-linejoin:round;stroke-miterlimit:4;stroke-dasharray:none;stroke-dashoffset:0;stroke-opacity:1;paint-order:fill markers stroke" id="rect910" width="266.03516" height="594.17853" x="0.060123034" y="-297.17859"/> </g> </svg>